<svg id="svg" fill="#9ecdff" stroke="#9ecdff" width="200" height="200" version="1.1" viewBox="144 144 512 512" xmlns="http://www.w3.org/2000/svg">
    <g id="IconSvg_bgCarrier" stroke-width="0"></g>
    <g id="IconSvg_tracerCarrier" stroke-linecap="round" stroke-linejoin="round" stroke="#CCCCCC" stroke-width="0">
      <path xmlns="http://www.w3.org/2000/svg" d="m399.62 588.17c-48.891 0.0625-95.898-18.879-131.08-52.832-35.184-33.949-55.793-80.246-57.473-129.11-1.6758-48.863 15.707-96.469 48.477-132.75 32.773-36.285 78.367-58.41 127.15-61.699 4.5273-0.30078 8.6719 2.5312 10.035 6.8555 1.3672 4.3242-0.39844 9.0195-4.2734 11.375-2.0039 1.2188-3.957 2.4609-5.8047 3.6992-66.457 44.516-84.309 134.8-39.793 201.26 44.516 66.457 134.8 84.309 201.26 39.793 1.8516-1.2383 3.7422-2.5703 5.6328-3.9609h-0.007812c3.6523-2.6836 8.6641-2.5273 12.141 0.38281 3.4766 2.9062 4.5195 7.8086 2.5234 11.879-15.527 31.52-39.562 58.07-69.391 76.645-29.824 18.574-64.25 28.438-99.391 28.473z"></path>

      </g>
     <g id="IconSvg_iconCarrier">
      <path xmlns="http://www.w3.org/2000/svg" d="m399.62 588.17c-48.891 0.0625-95.898-18.879-131.08-52.832-35.184-33.949-55.793-80.246-57.473-129.11-1.6758-48.863 15.707-96.469 48.477-132.75 32.773-36.285 78.367-58.41 127.15-61.699 4.5273-0.30078 8.6719 2.5312 10.035 6.8555 1.3672 4.3242-0.39844 9.0195-4.2734 11.375-2.0039 1.2188-3.957 2.4609-5.8047 3.6992-66.457 44.516-84.309 134.8-39.793 201.26 44.516 66.457 134.8 84.309 201.26 39.793 1.8516-1.2383 3.7422-2.5703 5.6328-3.9609h-0.007812c3.6523-2.6836 8.6641-2.5273 12.141 0.38281 3.4766 2.9062 4.5195 7.8086 2.5234 11.879-15.527 31.52-39.562 58.07-69.391 76.645-29.824 18.574-64.25 28.438-99.391 28.473z"></path>

      </g>
      </svg>